<svg width="47" height="49" viewBox="0 0 47 49" fill="none" xmlns="http://www.w3.org/2000/svg">
<path d="M37.3415 30.2557L11.985 4.72745H16.1915V0H30.2915V4.72745H34.216C35.043 4.73363 35.8344 5.06684 36.4193 5.65507C37.0041 6.2433 37.3354 7.03934 37.3415 7.8712M37.3415 36.2832L2.9845 1.72552L0 4.72745L9.1415 13.9223V44.1307C9.14765 44.9626 9.47892 45.7586 10.0637 46.3469C10.6486 46.9351 11.44 47.2683 12.267 47.2745H34.216C35.043 47.2683 35.8344 46.9351 36.4193 46.3469C37.0041 45.7586 37.3354 44.9626 37.3415 44.1307V42.287L44.0155 49L47 45.9981L37.3415 36.2832Z" fill="#E8392C"/>
</svg>
