<svg width="39" height="65" viewBox="0 0 39 65" fill="none" xmlns="http://www.w3.org/2000/svg">
<path d="M34.6775 6.5H29.25V0H9.75V6.5H4.3225C3.1761 6.5 2.07666 6.9554 1.26603 7.76603C0.455404 8.57666 0 9.6761 0 10.8225V60.6775C0 63.05 1.95 65 4.3225 65H34.6775C35.8239 65 36.9233 64.5446 37.734 63.734C38.5446 62.9233 39 61.8239 39 60.6775V10.8225C39 8.45 37.05 6.5 34.6775 6.5Z" fill="#E8392C"/>
<path d="M9 45L20 26L31 45H9ZM20 42C20.2833 42 20.521 41.904 20.713 41.712C20.905 41.52 21.0007 41.2827 21 41C20.9993 40.7173 20.9033 40.48 20.712 40.288C20.5207 40.096 20.2833 40 20 40C19.7167 40 19.4793 40.096 19.288 40.288C19.0967 40.48 19.0007 40.7173 19 41C18.9993 41.2827 19.0953 41.5203 19.288 41.713C19.4807 41.9057 19.718 42.0013 20 42ZM19 39H21V34H19V39Z" fill="white"/>
</svg>
