<svg width="37" height="39" viewBox="0 0 37 39" fill="none" xmlns="http://www.w3.org/2000/svg">
<path d="M18.5 20.5263C17.9176 20.5263 17.4297 20.3293 17.0364 19.9352C16.6431 19.5411 16.4458 19.0539 16.4444 18.4737V2.05264C16.4444 1.47106 16.6418 0.983902 17.0364 0.591165C17.4311 0.198428 17.919 0.0013755 18.5 7.07803e-06C19.081 -0.00136134 19.5696 0.195691 19.9656 0.591165C20.3616 0.986639 20.5583 1.4738 20.5556 2.05264V18.4737C20.5556 19.0553 20.3582 19.5431 19.9636 19.9372C19.5689 20.3313 19.081 20.5277 18.5 20.5263ZM18.5 39C15.9306 39 13.5242 38.5128 11.2809 37.5385C9.03759 36.5642 7.08481 35.2471 5.42255 33.5872C3.7603 31.9273 2.44131 29.9773 1.46561 27.7372C0.489908 25.4971 0.00137037 23.0935 0 20.5263C0 18.4395 0.342593 16.4122 1.02778 14.4444C1.71296 12.4766 2.70648 10.6723 4.00833 9.03158C4.38518 8.55264 4.86481 8.32206 5.44722 8.33985C6.02963 8.35764 6.54352 8.58821 6.98889 9.03158C7.36574 9.4079 7.53704 9.86974 7.50278 10.4171C7.46852 10.9645 7.28009 11.4776 6.9375 11.9566C6.0125 13.1882 5.31018 14.5395 4.83055 16.0105C4.35093 17.4816 4.11111 18.9868 4.11111 20.5263C4.11111 24.5289 5.50752 27.9247 8.30033 30.7135C11.0931 33.5024 14.493 34.8961 18.5 34.8947C22.507 34.8934 25.9075 33.4996 28.7017 30.7135C31.4959 27.9274 32.8916 24.5317 32.8889 20.5263C32.8889 18.9526 32.658 17.4214 32.1962 15.9325C31.7343 14.4437 31.006 13.0842 30.0111 11.854C29.6685 11.4092 29.4801 10.9221 29.4458 10.3925C29.4116 9.8629 29.5829 9.40927 29.9597 9.03158C30.3708 8.62106 30.8676 8.40758 31.45 8.39116C32.0324 8.37474 32.512 8.58821 32.8889 9.03158C34.225 10.6737 35.2446 12.4697 35.9476 14.4197C36.6506 16.3697 37.0014 18.4053 37 20.5263C37 23.0921 36.5121 25.4957 35.5364 27.7372C34.5607 29.9787 33.2418 31.9287 31.5795 33.5872C29.9172 35.2457 27.9645 36.5628 25.7212 37.5385C23.4779 38.5142 21.0708 39.0014 18.5 39Z" fill="white"/>
</svg>
