<svg width="33" height="30" viewBox="0 0 33 30" fill="none" xmlns="http://www.w3.org/2000/svg">
<path d="M3.3 3.33333H8.25L11.55 0H21.45L24.75 3.33333H29.7C30.5752 3.33333 31.4146 3.68452 32.0335 4.30964C32.6523 4.93476 33 5.78261 33 6.66667V26.6667C33 27.5507 32.6523 28.3986 32.0335 29.0237C31.4146 29.6488 30.5752 30 29.7 30H3.3C2.42479 30 1.58542 29.6488 0.966547 29.0237C0.347677 28.3986 0 27.5507 0 26.6667V6.66667C0 5.78261 0.347677 4.93476 0.966547 4.30964C1.58542 3.68452 2.42479 3.33333 3.3 3.33333ZM16.5 8.33333C14.312 8.33333 12.2135 9.21131 10.6664 10.7741C9.11919 12.3369 8.25 14.4565 8.25 16.6667C8.25 18.8768 9.11919 20.9964 10.6664 22.5592C12.2135 24.122 14.312 25 16.5 25C18.688 25 20.7865 24.122 22.3336 22.5592C23.8808 20.9964 24.75 18.8768 24.75 16.6667C24.75 14.4565 23.8808 12.3369 22.3336 10.7741C20.7865 9.21131 18.688 8.33333 16.5 8.33333ZM16.5 11.6667C17.8128 11.6667 19.0719 12.1934 20.0002 13.1311C20.9285 14.0688 21.45 15.3406 21.45 16.6667C21.45 17.9927 20.9285 19.2645 20.0002 20.2022C19.0719 21.1399 17.8128 21.6667 16.5 21.6667C15.1872 21.6667 13.9281 21.1399 12.9998 20.2022C12.0715 19.2645 11.55 17.9927 11.55 16.6667C11.55 15.3406 12.0715 14.0688 12.9998 13.1311C13.9281 12.1934 15.1872 11.6667 16.5 11.6667Z" fill="#00904B"/>
</svg>
