<svg width="41" height="45" viewBox="0 0 41 45" fill="none" xmlns="http://www.w3.org/2000/svg">
<path d="M2 11.1111H39M15.875 20.2222V33.8889M25.125 20.2222V33.8889M4.3125 11.1111L6.625 38.4444C6.625 39.6527 7.11228 40.8114 7.97963 41.6657C8.84699 42.52 10.0234 43 11.25 43H29.75C30.9766 43 32.153 42.52 33.0204 41.6657C33.8877 40.8114 34.375 39.6527 34.375 38.4444L36.6875 11.1111M13.5625 11.1111V4.27778C13.5625 3.67367 13.8061 3.09431 14.2398 2.66715C14.6735 2.23998 15.2617 2 15.875 2H25.125C25.7383 2 26.3265 2.23998 26.7602 2.66715C27.1939 3.09431 27.4375 3.67367 27.4375 4.27778V11.1111" stroke="#00904B" stroke-width="4" stroke-linecap="round" stroke-linejoin="round"/>
</svg>
