<svg width="45" height="49" viewBox="0 0 45 49" fill="none" xmlns="http://www.w3.org/2000/svg">
<path d="M2 11.1111H39M15.875 20.2222V33.8889M25.125 20.2222V33.8889M4.3125 11.1111L6.625 38.4444C6.625 39.6527 7.11228 40.8114 7.97963 41.6657C8.84699 42.52 10.0234 43 11.25 43H29.75C30.9766 43 32.153 42.52 33.0204 41.6657C33.8877 40.8114 34.375 39.6527 34.375 38.4444L36.6875 11.1111M13.5625 11.1111V4.27778C13.5625 3.67367 13.8061 3.09431 14.2398 2.66715C14.6735 2.23998 15.2617 2 15.875 2H25.125C25.7383 2 26.3265 2.23998 26.7602 2.66715C27.1939 3.09431 27.4375 3.67367 27.4375 4.27778V11.1111" stroke="#E8392C" stroke-width="4" stroke-linecap="round" stroke-linejoin="round"/>
<rect x="20" y="24" width="25" height="25" rx="12" fill="white"/>
<path fill-rule="evenodd" clip-rule="evenodd" d="M32.4349 47.8281C35.4566 47.8281 38.3545 46.6278 40.4911 44.4911C42.6278 42.3545 43.8281 39.4566 43.8281 36.4349C43.8281 33.4132 42.6278 30.5153 40.4911 28.3787C38.3545 26.242 35.4566 25.0417 32.4349 25.0417C29.4132 25.0417 26.5153 26.242 24.3787 28.3787C22.242 30.5153 21.0417 33.4132 21.0417 36.4349C21.0417 39.4566 22.242 42.3545 24.3787 44.4911C26.5153 46.6278 29.4132 47.8281 32.4349 47.8281ZM30.0423 32.3171C29.8109 32.1014 29.5049 31.984 29.1886 31.9896C28.8724 31.9952 28.5706 32.1233 28.347 32.347C28.1233 32.5706 27.9952 32.8724 27.9896 33.1886C27.9841 33.5049 28.1015 33.8109 28.3171 34.0423L30.7097 36.4349L28.3171 38.8275C28.1971 38.9392 28.1009 39.074 28.0342 39.2237C27.9675 39.3735 27.9316 39.5351 27.9287 39.699C27.9259 39.8629 27.956 40.0257 28.0174 40.1777C28.0788 40.3297 28.1702 40.4678 28.2861 40.5837C28.402 40.6996 28.5401 40.791 28.6921 40.8524C28.8441 40.9138 29.0069 40.944 29.1708 40.9411C29.3347 40.9382 29.4963 40.9023 29.6461 40.8356C29.7958 40.7689 29.9306 40.6727 30.0423 40.5527L32.4349 38.1602L34.8275 40.5527C34.9392 40.6727 35.074 40.7689 35.2238 40.8356C35.3735 40.9023 35.5351 40.9382 35.699 40.9411C35.8629 40.944 36.0258 40.9138 36.1778 40.8524C36.3298 40.791 36.4678 40.6996 36.5837 40.5837C36.6997 40.4678 36.791 40.3297 36.8524 40.1777C36.9138 40.0257 36.944 39.8629 36.9411 39.699C36.9382 39.5351 36.9023 39.3735 36.8356 39.2237C36.7689 39.074 36.6727 38.9392 36.5528 38.8275L34.1602 36.4349L36.5528 34.0423C36.6727 33.9306 36.7689 33.7958 36.8356 33.6461C36.9023 33.4963 36.9382 33.3347 36.9411 33.1708C36.944 33.0069 36.9138 32.8441 36.8524 32.6921C36.791 32.5401 36.6997 32.402 36.5837 32.2861C36.4678 32.1702 36.3298 32.0788 36.1778 32.0174C36.0258 31.956 35.8629 31.9258 35.699 31.9287C35.5351 31.9316 35.3735 31.9675 35.2238 32.0342C35.074 32.1009 34.9392 32.1971 34.8275 32.3171L32.4349 34.7096L30.0423 32.3171Z" fill="#E8392C"/>
</svg>
