<svg width="46" height="46" viewBox="0 0 46 46" fill="none" xmlns="http://www.w3.org/2000/svg">
<path d="M20.7 34.5H25.3V20.7H20.7V34.5ZM23 16.1C23.6517 16.1 24.1983 15.8792 24.6399 15.4376C25.0815 14.996 25.3015 14.4501 25.3 13.8C25.2985 13.1499 25.0777 12.604 24.6376 12.1624C24.1975 11.7208 23.6517 11.5 23 11.5C22.3483 11.5 21.8025 11.7208 21.3624 12.1624C20.9223 12.604 20.7015 13.1499 20.7 13.8C20.6985 14.4501 20.9193 14.9968 21.3624 15.4399C21.8055 15.883 22.3514 16.1031 23 16.1ZM23 46C19.8183 46 16.8283 45.3959 14.03 44.1876C11.2317 42.9793 8.7975 41.341 6.7275 39.2725C4.6575 37.204 3.01913 34.7699 1.8124 31.97C0.605669 29.1701 0.00153624 26.1801 2.91139e-06 23C-0.00153042 19.8199 0.602603 16.8299 1.8124 14.03C3.0222 11.2301 4.66057 8.79597 6.7275 6.7275C8.79443 4.65903 11.2286 3.02067 14.03 1.8124C16.8314 0.604133 19.8214 0 23 0C26.1786 0 29.1686 0.604133 31.97 1.8124C34.7714 3.02067 37.2055 4.65903 39.2725 6.7275C41.3394 8.79597 42.9785 11.2301 44.1899 14.03C45.4012 16.8299 46.0046 19.8199 46 23C45.9954 26.1801 45.3912 29.1701 44.1876 31.97C42.9839 34.7699 41.3455 37.204 39.2725 39.2725C37.1994 41.341 34.7652 42.9801 31.97 44.1899C29.1747 45.3997 26.1847 46.0031 23 46Z" fill="white"/>
</svg>
