<svg width="40" height="44" viewBox="0 0 40 44" fill="none" xmlns="http://www.w3.org/2000/svg">
<path fill-rule="evenodd" clip-rule="evenodd" d="M18.5 20.5263C17.9176 20.5263 17.4297 20.3293 17.0364 19.9352C16.6431 19.5411 16.4458 19.0539 16.4444 18.4737V2.05264C16.4444 1.47107 16.6418 0.983908 17.0364 0.591172C17.4311 0.198435 17.919 0.00138209 18.5 1.36659e-05C19.081 -0.00135475 19.5696 0.195698 19.9656 0.591172C20.3616 0.986645 20.5583 1.4738 20.5556 2.05264V18.4737C20.5556 19.0553 20.3582 19.5431 19.9636 19.9372C19.5689 20.3313 19.081 20.5277 18.5 20.5263ZM18.5 39C15.9306 39 13.5242 38.5128 11.2809 37.5385C9.03759 36.5642 7.08481 35.2471 5.42255 33.5872C3.7603 31.9273 2.44131 29.9773 1.46561 27.7372C0.489908 25.4971 0.00137037 23.0935 0 20.5263C0 18.4395 0.342593 16.4122 1.02778 14.4444C1.71296 12.4766 2.70648 10.6723 4.00833 9.03159C4.38518 8.55264 4.86481 8.32206 5.44722 8.33985C6.02963 8.35764 6.54352 8.58822 6.98889 9.03159C7.36574 9.4079 7.53704 9.86975 7.50278 10.4171C7.46852 10.9645 7.28009 11.4776 6.9375 11.9566C6.0125 13.1882 5.31018 14.5395 4.83055 16.0105C4.35093 17.4816 4.11111 18.9869 4.11111 20.5263C4.11111 24.529 5.50752 27.9247 8.30033 30.7135C11.0931 33.5024 14.493 34.8961 18.5 34.8947C19.0098 34.8946 19.5098 34.8719 20 34.8266V38.944C19.5064 38.9816 19.0064 39.0003 18.5 39ZM36.6836 24H32.506C32.7621 22.8981 32.8897 21.7402 32.8889 20.5263C32.8889 18.9526 32.658 17.4214 32.1962 15.9325C31.7343 14.4437 31.006 13.0842 30.0111 11.854C29.6685 11.4092 29.4801 10.9221 29.4458 10.3925C29.4116 9.8629 29.5829 9.40927 29.9597 9.03159C30.3708 8.62106 30.8676 8.40759 31.45 8.39117C32.0324 8.37475 32.512 8.58822 32.8889 9.03159C34.225 10.6737 35.2446 12.4697 35.9476 14.4197C36.6506 16.3697 37.0014 18.4053 37 20.5263C37 21.7193 36.8945 22.8772 36.6836 24ZM34.965 37.635L33.635 38.965L29.55 34.88V29.75H31.45V34.12L34.965 37.635ZM26.795 43.2514C27.9508 43.7505 29.1858 44 30.5 44C31.8154 44.0013 33.0504 43.7521 34.205 43.2524C35.3596 42.7527 36.365 42.0756 37.2212 41.2213C38.0775 40.3669 38.7542 39.3615 39.2514 38.205C39.7486 37.0485 39.9981 35.8135 40 34.5C40.0019 33.1865 39.7527 31.9515 39.2523 30.795C38.752 29.6385 38.075 28.6331 37.2212 27.7788C36.3675 26.9244 35.3621 26.2477 34.205 25.7486C33.0479 25.2495 31.8129 25 30.5 25C29.1871 25 27.9521 25.2495 26.795 25.7486C25.6379 26.2477 24.6325 26.9244 23.7787 27.7788C22.925 28.6331 22.2483 29.6385 21.7486 30.795C21.2489 31.9515 20.9994 33.1865 21 34.5C21.0006 35.8135 21.2502 37.0485 21.7486 38.205C22.247 39.3615 22.9237 40.3669 23.7787 41.2213C24.6337 42.0756 25.6392 42.7523 26.795 43.2514Z" fill="#00904B"/>
</svg>
